<svg height="32" viewBox="0 0 100 36" xmlns="http://www.w3.org/2000/svg">
<rect x="0.5" y="0.5" width="99" height="35" rx="5.5" fill="white" stroke="#D1D5DB"/>
<path d="M22 8C16.4783 8 12 12.4775 12 18C12 22.4183 14.865 26.1667 18.8392 27.4892C19.3383 27.5817 19.5 27.2717 19.5 27.0083V25.1467C16.7183 25.7517 16.1392 23.9667 16.1392 23.9667C15.6842 22.8108 15.0283 22.5033 15.0283 22.5033C14.1208 21.8825 15.0975 21.8958 15.0975 21.8958C16.1017 21.9658 16.63 22.9267 16.63 22.9267C17.5217 24.455 18.9692 24.0133 19.54 23.7575C19.6292 23.1117 19.8883 22.67 20.175 22.4208C17.9542 22.1667 15.6192 21.3092 15.6192 17.4783C15.6192 16.3858 16.01 15.4942 16.6492 14.7942C16.5458 14.5417 16.2033 13.5242 16.7467 12.1475C16.7467 12.1475 17.5867 11.8792 19.4975 13.1725C20.295 12.9508 21.15 12.84 22 12.8358C22.85 12.84 23.7058 12.9508 24.505 13.1725C26.4142 11.8792 27.2525 12.1475 27.2525 12.1475C27.7967 13.525 27.4542 14.5425 27.3508 14.7942C27.9925 15.4942 28.38 16.3867 28.38 17.4783C28.38 21.3192 26.0408 22.165 23.8142 22.4125C24.1725 22.7225 24.5 23.3308 24.5 24.2642V27.0083C24.5 27.2742 24.66 27.5867 25.1675 27.4883C29.1383 26.1642 32 22.4167 32 18C32 12.4775 27.5225 8 22 8Z" fill="#1F2328"/>
<path d="M47.8253 16.0696C47.7424 15.8011 47.6281 15.5608 47.4822 15.3487C47.3397 15.1333 47.1674 14.9493 46.9652 14.7969C46.7663 14.6444 46.5376 14.5301 46.2791 14.4538C46.0206 14.3743 45.7389 14.3345 45.4339 14.3345C44.8871 14.3345 44.3999 14.4721 43.9723 14.7472C43.5447 15.0223 43.2083 15.4266 42.9631 15.9602C42.7211 16.4905 42.6001 17.1368 42.6001 17.8991C42.6001 18.6681 42.7211 19.3194 42.9631 19.853C43.205 20.3866 43.5414 20.7926 43.9723 21.071C44.4032 21.3461 44.9036 21.4837 45.4737 21.4837C45.9908 21.4837 46.4382 21.3842 46.8161 21.1854C47.1972 20.9865 47.4905 20.7048 47.696 20.3402C47.9015 19.9723 48.0043 19.5414 48.0043 19.0476L48.4219 19.1122H45.6577V17.6705H49.7891V18.8935C49.7891 19.7652 49.6035 20.5192 49.2322 21.1555C48.861 21.7919 48.3506 22.2824 47.701 22.6271C47.0514 22.9685 46.3056 23.1392 45.4638 23.1392C44.5258 23.1392 43.7022 22.9287 42.9929 22.5078C42.2869 22.0836 41.7351 21.482 41.3374 20.7031C40.9429 19.9209 40.7457 18.9929 40.7457 17.919C40.7457 17.0971 40.8617 16.3629 41.0938 15.7166C41.3291 15.0703 41.6572 14.5218 42.0781 14.071C42.4991 13.617 42.9929 13.2723 43.5597 13.0369C44.1264 12.7983 44.7429 12.679 45.4091 12.679C45.9725 12.679 46.4979 12.7618 46.9851 12.9276C47.4723 13.09 47.9048 13.322 48.2827 13.6236C48.6638 13.9252 48.977 14.2831 49.2223 14.6974C49.4676 15.1117 49.6283 15.5691 49.7045 16.0696H47.8253ZM51.9716 23V15.3636H53.7713V23H51.9716ZM52.8764 14.2798C52.5914 14.2798 52.3461 14.1854 52.1406 13.9964C51.9351 13.8042 51.8324 13.5739 51.8324 13.3054C51.8324 13.0336 51.9351 12.8033 52.1406 12.6143C52.3461 12.4221 52.5914 12.326 52.8764 12.326C53.1648 12.326 53.41 12.4221 53.6122 12.6143C53.8177 12.8033 53.9205 13.0336 53.9205 13.3054C53.9205 13.5739 53.8177 13.8042 53.6122 13.9964C53.41 14.1854 53.1648 14.2798 52.8764 14.2798ZM59.4352 15.3636V16.7557H55.0453V15.3636H59.4352ZM56.1291 13.5341H57.9288V20.7031C57.9288 20.9451 57.9653 21.1307 58.0382 21.2599C58.1144 21.3859 58.2138 21.4721 58.3365 21.5185C58.4591 21.5649 58.595 21.5881 58.7441 21.5881C58.8568 21.5881 58.9596 21.5798 59.0524 21.5632C59.1485 21.5466 59.2214 21.5317 59.2711 21.5185L59.5744 22.9254C59.4783 22.9586 59.3407 22.995 59.1618 23.0348C58.9861 23.0746 58.7707 23.0978 58.5154 23.1044C58.0647 23.1177 57.6587 23.0497 57.2974 22.9006C56.9361 22.7481 56.6494 22.5128 56.4373 22.1946C56.2285 21.8764 56.1258 21.4787 56.1291 21.0014V13.5341ZM61.1839 23V12.8182H63.0284V17.1286H67.7464V12.8182H69.5959V23H67.7464V18.6747H63.0284V23H61.1839ZM76.3896 19.7884V15.3636H78.1893V23H76.4442V21.6428H76.3647C76.1924 22.0703 75.909 22.42 75.5146 22.6918C75.1235 22.9635 74.6412 23.0994 74.0678 23.0994C73.5674 23.0994 73.1249 22.9884 72.7404 22.7663C72.3593 22.541 72.061 22.2145 71.8455 21.7869C71.6301 21.3561 71.5224 20.8357 71.5224 20.2259V15.3636H73.3221V19.9474C73.3221 20.4313 73.4547 20.8158 73.7198 21.1009C73.985 21.3859 74.333 21.5284 74.7638 21.5284C75.029 21.5284 75.2859 21.4638 75.5344 21.3345C75.783 21.2053 75.9869 21.013 76.146 20.7578C76.3084 20.4993 76.3896 20.1761 76.3896 19.7884ZM80.1195 23V12.8182H81.9192V16.6264H81.9938C82.0866 16.4408 82.2175 16.2436 82.3865 16.0348C82.5556 15.8227 82.7843 15.642 83.0726 15.4929C83.361 15.3404 83.7289 15.2642 84.1763 15.2642C84.7663 15.2642 85.2982 15.415 85.7722 15.7166C86.2495 16.0149 86.6273 16.4574 86.9057 17.044C87.1874 17.6274 87.3283 18.3433 87.3283 19.1918C87.3283 20.0303 87.1908 20.7429 86.9157 21.3295C86.6406 21.9162 86.266 22.3636 85.7921 22.6719C85.3181 22.9801 84.7812 23.1342 84.1813 23.1342C83.7438 23.1342 83.3809 23.0613 83.0925 22.9155C82.8042 22.7696 82.5721 22.594 82.3965 22.3885C82.2241 22.1797 82.0899 21.9825 81.9938 21.7969H81.8894V23H80.1195ZM81.8844 19.1818C81.8844 19.6757 81.954 20.1082 82.0932 20.4794C82.2357 20.8506 82.4396 21.1406 82.7047 21.3494C82.9732 21.5549 83.298 21.6577 83.6792 21.6577C84.0769 21.6577 84.41 21.5516 84.6784 21.3395C84.9469 21.1241 85.1491 20.8307 85.285 20.4595C85.4242 20.085 85.4938 19.6591 85.4938 19.1818C85.4938 18.7079 85.4258 18.2869 85.29 17.919C85.1541 17.5511 84.9519 17.2628 84.6834 17.054C84.415 16.8452 84.0802 16.7408 83.6792 16.7408C83.2947 16.7408 82.9682 16.8419 82.6998 17.044C82.4313 17.2462 82.2275 17.5296 82.0882 17.8942C81.9524 18.2588 81.8844 18.688 81.8844 19.1818Z" fill="#3F3F46"/>
</svg>
