<svg height="32" viewBox="0 0 82 36" xmlns="http://www.w3.org/2000/svg">
<rect x="0.5" y="0.5" width="81" height="35" rx="5.5" fill="white" stroke="#D1D5DB"/>
<path d="M30.531 8H13.469C12.6577 8 12 8.65768 12 9.46897V26.531C12 27.3423 12.6577 28 13.469 28H30.531C31.3423 28 32 27.3423 32 26.531V9.46897C32 8.65768 31.3423 8 30.531 8Z" fill="#CB0101"/>
<path d="M16.26 23.9752H22.0331L22.0404 15.3304H24.9196L24.9123 23.9826H27.7988L27.8061 12.4512L16.2747 12.4365L16.26 23.9752Z" fill="white"/>
<path d="M42.7244 18.5256V23H40.9247V15.3636H42.6449V16.6612H42.7344C42.91 16.2337 43.1901 15.8939 43.5746 15.642C43.9624 15.3902 44.4413 15.2642 45.0114 15.2642C45.5384 15.2642 45.9974 15.3769 46.3885 15.6023C46.7829 15.8277 47.0878 16.1541 47.3033 16.5817C47.522 17.0092 47.6297 17.5279 47.6264 18.1378V23H45.8267V18.4162C45.8267 17.9058 45.6941 17.5064 45.429 17.218C45.1671 16.9297 44.8042 16.7855 44.3402 16.7855C44.0253 16.7855 43.7453 16.8551 43.5 16.9943C43.258 17.1302 43.0675 17.3274 42.9283 17.5859C42.7924 17.8445 42.7244 18.1577 42.7244 18.5256ZM49.456 25.8636V15.3636H51.2259V16.6264H51.3303C51.4231 16.4408 51.554 16.2436 51.723 16.0348C51.892 15.8227 52.1207 15.642 52.4091 15.4929C52.6974 15.3404 53.0653 15.2642 53.5128 15.2642C54.1027 15.2642 54.6347 15.415 55.1087 15.7166C55.5859 16.0149 55.9638 16.4574 56.2422 17.044C56.5239 17.6274 56.6648 18.3433 56.6648 19.1918C56.6648 20.0303 56.5272 20.7429 56.2521 21.3295C55.977 21.9162 55.6025 22.3636 55.1286 22.6719C54.6546 22.9801 54.1177 23.1342 53.5178 23.1342C53.0803 23.1342 52.7173 23.0613 52.429 22.9155C52.1406 22.7696 51.9086 22.594 51.733 22.3885C51.5606 22.1797 51.4264 21.9825 51.3303 21.7969H51.2557V25.8636H49.456ZM51.2209 19.1818C51.2209 19.6757 51.2905 20.1082 51.4297 20.4794C51.5722 20.8506 51.776 21.1406 52.0412 21.3494C52.3097 21.5549 52.6345 21.6577 53.0156 21.6577C53.4134 21.6577 53.7464 21.5516 54.0149 21.3395C54.2834 21.1241 54.4856 20.8307 54.6214 20.4595C54.7607 20.085 54.8303 19.6591 54.8303 19.1818C54.8303 18.7079 54.7623 18.2869 54.6264 17.919C54.4905 17.5511 54.2884 17.2628 54.0199 17.054C53.7514 16.8452 53.4167 16.7408 53.0156 16.7408C52.6312 16.7408 52.3047 16.8419 52.0362 17.044C51.7678 17.2462 51.5639 17.5296 51.4247 17.8942C51.2888 18.2588 51.2209 18.688 51.2209 19.1818ZM58.206 23V15.3636H59.9261V16.6612H60.0156C60.1747 16.2237 60.4382 15.8823 60.8061 15.6371C61.174 15.3885 61.6132 15.2642 62.1236 15.2642C62.6406 15.2642 63.0765 15.3902 63.4311 15.642C63.7891 15.8906 64.041 16.2304 64.1868 16.6612H64.2663C64.4354 16.237 64.7204 15.8989 65.1214 15.647C65.5258 15.3918 66.0047 15.2642 66.5582 15.2642C67.2609 15.2642 67.8343 15.4863 68.2784 15.9304C68.7225 16.3745 68.9446 17.0225 68.9446 17.8743V23H67.1399V18.1527C67.1399 17.6787 67.014 17.3324 66.7621 17.1136C66.5102 16.8916 66.2019 16.7805 65.8374 16.7805C65.4032 16.7805 65.0634 16.9164 64.8182 17.1882C64.5762 17.4567 64.4553 17.8063 64.4553 18.2372V23H62.6903V18.0781C62.6903 17.6837 62.571 17.3688 62.3324 17.1335C62.0971 16.8982 61.7888 16.7805 61.4077 16.7805C61.1491 16.7805 60.9138 16.8468 60.7017 16.9794C60.4896 17.1087 60.3205 17.2926 60.1946 17.5312C60.0687 17.7666 60.0057 18.0417 60.0057 18.3565V23H58.206Z" fill="#3F3F46"/>
</svg>