<svg height="32" viewBox="0 0 123 36" xmlns="http://www.w3.org/2000/svg">
<rect x="0.5" y="0.5" width="122" height="35" rx="5.5" fill="white" stroke="#D1D5DB"/>
<path d="M14.2856 26.3903L13.6674 9.91682C13.647 9.37277 14.0641 8.91168 14.6075 8.87773L28.6193 8.00199C29.1724 7.96742 29.6487 8.38777 29.6833 8.94086C29.6847 8.96169 29.6853 8.98257 29.6853 9.00345V26.9542C29.6853 27.5083 29.2361 27.9576 28.6819 27.9576C28.6668 27.9576 28.6518 27.9573 28.6368 27.9566L15.2433 27.355C14.7217 27.3316 14.3052 26.912 14.2856 26.3903Z" fill="#FF4785"/>
<path d="M25.4952 10.4531L25.5909 8.15119L27.5152 8L27.5981 10.3739C27.6009 10.4565 27.5363 10.5258 27.4537 10.5287C27.4183 10.5299 27.3837 10.5186 27.3558 10.4967L26.6138 9.91212L25.7352 10.5786C25.6693 10.6285 25.5755 10.6156 25.5255 10.5498C25.5045 10.5221 25.4937 10.4879 25.4952 10.4531ZM23.0343 15.5223C23.0343 15.9127 25.6639 15.7256 26.0169 15.4513C26.0169 12.7929 24.5904 11.3959 21.9783 11.3959C19.3663 11.3959 17.9028 12.8146 17.9028 14.9427C17.9028 18.6491 22.9046 18.72 22.9046 20.7417C22.9046 21.3091 22.6267 21.6461 22.0154 21.6461C21.2188 21.6461 20.9038 21.2392 20.9409 19.856C20.9409 19.5559 17.9028 19.4624 17.8101 19.856C17.5743 23.2081 19.6627 24.1749 22.0524 24.1749C24.3681 24.1749 26.1836 22.9407 26.1836 20.7062C26.1836 16.7338 21.1077 16.8402 21.1077 14.8718C21.1077 14.0737 21.7005 13.9673 22.0524 13.9673C22.4229 13.9673 23.0898 14.0326 23.0343 15.5223Z" fill="white"/>
<path d="M46.5376 15.6172C46.4912 15.183 46.2957 14.8449 45.951 14.603C45.6096 14.361 45.1655 14.2401 44.6186 14.2401C44.2341 14.2401 43.9044 14.2981 43.6293 14.4141C43.3542 14.5301 43.1437 14.6875 42.9979 14.8864C42.852 15.0852 42.7775 15.3123 42.7741 15.5675C42.7741 15.7796 42.8222 15.9635 42.9183 16.1193C43.0178 16.2751 43.152 16.4077 43.321 16.517C43.4901 16.6231 43.6773 16.7126 43.8828 16.7855C44.0883 16.8584 44.2955 16.9197 44.5043 16.9695L45.4588 17.2081C45.8433 17.2976 46.2128 17.4186 46.5675 17.571C46.9254 17.7235 47.2453 17.9157 47.527 18.1477C47.812 18.3797 48.0374 18.6598 48.2031 18.9879C48.3688 19.3161 48.4517 19.7005 48.4517 20.1413C48.4517 20.7379 48.2992 21.2633 47.9943 21.7173C47.6894 22.1681 47.2486 22.5211 46.6719 22.7763C46.0985 23.0282 45.4041 23.1541 44.5888 23.1541C43.7966 23.1541 43.1089 23.0315 42.5256 22.7862C41.9455 22.541 41.4915 22.183 41.1634 21.7124C40.8385 21.2417 40.6629 20.6683 40.6364 19.9922H42.451C42.4775 20.3468 42.5869 20.6418 42.7791 20.8771C42.9714 21.1125 43.2216 21.2881 43.5298 21.4041C43.8414 21.5201 44.1894 21.5781 44.5739 21.5781C44.9749 21.5781 45.3262 21.5185 45.6278 21.3991C45.9328 21.2765 46.1714 21.1075 46.3438 20.892C46.5161 20.6733 46.6039 20.4181 46.6072 20.1264C46.6039 19.8613 46.526 19.6425 46.3736 19.4702C46.2211 19.2945 46.0073 19.1487 45.7322 19.0327C45.4605 18.9134 45.1423 18.8073 44.7777 18.7145L43.6193 18.4162C42.7808 18.2008 42.1179 17.8743 41.6307 17.4368C41.1468 16.996 40.9048 16.411 40.9048 15.6818C40.9048 15.0819 41.0672 14.5566 41.392 14.1058C41.7202 13.6551 42.166 13.3054 42.7294 13.0568C43.2929 12.8049 43.9309 12.679 44.6435 12.679C45.366 12.679 45.9991 12.8049 46.5426 13.0568C47.0895 13.3054 47.5187 13.6518 47.8303 14.0959C48.1418 14.5367 48.3026 15.0438 48.3125 15.6172H46.5376ZM53.8297 15.3636V16.7557H49.4398V15.3636H53.8297ZM50.5236 13.5341H52.3233V20.7031C52.3233 20.9451 52.3598 21.1307 52.4327 21.2599C52.5089 21.3859 52.6084 21.4721 52.731 21.5185C52.8536 21.5649 52.9895 21.5881 53.1387 21.5881C53.2514 21.5881 53.3541 21.5798 53.4469 21.5632C53.543 21.5466 53.6159 21.5317 53.6657 21.5185L53.9689 22.9254C53.8728 22.9586 53.7353 22.995 53.5563 23.0348C53.3806 23.0746 53.1652 23.0978 52.91 23.1044C52.4592 23.1177 52.0532 23.0497 51.6919 22.9006C51.3307 22.7481 51.044 22.5128 50.8319 22.1946C50.623 21.8764 50.5203 21.4787 50.5236 21.0014V13.5341ZM58.5838 23.1491C57.8381 23.1491 57.1918 22.9851 56.6449 22.657C56.098 22.3288 55.6738 21.8698 55.3722 21.2798C55.0739 20.6899 54.9247 20.0005 54.9247 19.2116C54.9247 18.4228 55.0739 17.7318 55.3722 17.1385C55.6738 16.5452 56.098 16.0845 56.6449 15.7564C57.1918 15.4283 57.8381 15.2642 58.5838 15.2642C59.3295 15.2642 59.9759 15.4283 60.5227 15.7564C61.0696 16.0845 61.4922 16.5452 61.7905 17.1385C62.0921 17.7318 62.2429 18.4228 62.2429 19.2116C62.2429 20.0005 62.0921 20.6899 61.7905 21.2798C61.4922 21.8698 61.0696 22.3288 60.5227 22.657C59.9759 22.9851 59.3295 23.1491 58.5838 23.1491ZM58.5938 21.7074C58.9981 21.7074 59.3362 21.5964 59.608 21.3743C59.8797 21.1489 60.0819 20.8473 60.2145 20.4695C60.3504 20.0916 60.4183 19.6707 60.4183 19.2067C60.4183 18.7393 60.3504 18.3168 60.2145 17.9389C60.0819 17.5578 59.8797 17.2545 59.608 17.0291C59.3362 16.8037 58.9981 16.6911 58.5938 16.6911C58.1795 16.6911 57.8348 16.8037 57.5597 17.0291C57.2879 17.2545 57.084 17.5578 56.9482 17.9389C56.8156 18.3168 56.7493 18.7393 56.7493 19.2067C56.7493 19.6707 56.8156 20.0916 56.9482 20.4695C57.084 20.8473 57.2879 21.1489 57.5597 21.3743C57.8348 21.5964 58.1795 21.7074 58.5938 21.7074ZM63.7704 23V15.3636H65.5154V16.6364H65.595C65.7342 16.1955 65.9728 15.8558 66.3109 15.6172C66.6523 15.3752 67.0417 15.2543 67.4792 15.2543C67.5787 15.2543 67.6897 15.2592 67.8123 15.2692C67.9383 15.2758 68.0427 15.2874 68.1255 15.304V16.9595C68.0493 16.933 67.9283 16.9098 67.7626 16.8899C67.6002 16.8667 67.4428 16.8551 67.2903 16.8551C66.9622 16.8551 66.6672 16.9264 66.4054 17.0689C66.1468 17.2081 65.943 17.402 65.7939 17.6506C65.6447 17.8991 65.5701 18.1858 65.5701 18.5107V23H63.7704ZM70.6722 25.8636C70.427 25.8636 70.1999 25.8438 69.9911 25.804C69.7856 25.7675 69.6216 25.7244 69.4989 25.6747L69.9165 24.2727C70.1784 24.349 70.4121 24.3854 70.6175 24.3821C70.823 24.3788 71.0037 24.3142 71.1594 24.1882C71.3185 24.0656 71.4528 23.8601 71.5621 23.5717L71.7163 23.1591L68.9471 15.3636H70.8562L72.6161 21.1307H72.6957L74.4606 15.3636H76.3746L73.3171 23.9247C73.1746 24.3291 72.9857 24.6754 72.7504 24.9638C72.515 25.2554 72.2267 25.4775 71.8853 25.63C71.5472 25.7857 71.1429 25.8636 70.6722 25.8636ZM77.6996 23V12.8182H79.4993V16.6264H79.5739C79.6667 16.4408 79.7976 16.2436 79.9666 16.0348C80.1357 15.8227 80.3643 15.642 80.6527 15.4929C80.9411 15.3404 81.3089 15.2642 81.7564 15.2642C82.3464 15.2642 82.8783 15.415 83.3523 15.7166C83.8295 16.0149 84.2074 16.4574 84.4858 17.044C84.7675 17.6274 84.9084 18.3433 84.9084 19.1918C84.9084 20.0303 84.7708 20.7429 84.4957 21.3295C84.2206 21.9162 83.8461 22.3636 83.3722 22.6719C82.8982 22.9801 82.3613 23.1342 81.7614 23.1342C81.3239 23.1342 80.9609 23.0613 80.6726 22.9155C80.3842 22.7696 80.1522 22.594 79.9766 22.3885C79.8042 22.1797 79.67 21.9825 79.5739 21.7969H79.4695V23H77.6996ZM79.4645 19.1818C79.4645 19.6757 79.5341 20.1082 79.6733 20.4794C79.8158 20.8506 80.0196 21.1406 80.2848 21.3494C80.5533 21.5549 80.8781 21.6577 81.2592 21.6577C81.657 21.6577 81.9901 21.5516 82.2585 21.3395C82.527 21.1241 82.7292 20.8307 82.8651 20.4595C83.0043 20.085 83.0739 19.6591 83.0739 19.1818C83.0739 18.7079 83.0059 18.2869 82.87 17.919C82.7341 17.5511 82.532 17.2628 82.2635 17.054C81.995 16.8452 81.6603 16.7408 81.2592 16.7408C80.8748 16.7408 80.5483 16.8419 80.2798 17.044C80.0114 17.2462 79.8075 17.5296 79.6683 17.8942C79.5324 18.2588 79.4645 18.688 79.4645 19.1818ZM89.7694 23.1491C89.0236 23.1491 88.3773 22.9851 87.8304 22.657C87.2836 22.3288 86.8593 21.8698 86.5577 21.2798C86.2594 20.6899 86.1103 20.0005 86.1103 19.2116C86.1103 18.4228 86.2594 17.7318 86.5577 17.1385C86.8593 16.5452 87.2836 16.0845 87.8304 15.7564C88.3773 15.4283 89.0236 15.2642 89.7694 15.2642C90.5151 15.2642 91.1614 15.4283 91.7083 15.7564C92.2551 16.0845 92.6777 16.5452 92.976 17.1385C93.2776 17.7318 93.4284 18.4228 93.4284 19.2116C93.4284 20.0005 93.2776 20.6899 92.976 21.2798C92.6777 21.8698 92.2551 22.3288 91.7083 22.657C91.1614 22.9851 90.5151 23.1491 89.7694 23.1491ZM89.7793 21.7074C90.1837 21.7074 90.5217 21.5964 90.7935 21.3743C91.0653 21.1489 91.2675 20.8473 91.4 20.4695C91.5359 20.0916 91.6039 19.6707 91.6039 19.2067C91.6039 18.7393 91.5359 18.3168 91.4 17.9389C91.2675 17.5578 91.0653 17.2545 90.7935 17.0291C90.5217 16.8037 90.1837 16.6911 89.7793 16.6911C89.365 16.6911 89.0203 16.8037 88.7452 17.0291C88.4734 17.2545 88.2696 17.5578 88.1337 17.9389C88.0011 18.3168 87.9348 18.7393 87.9348 19.2067C87.9348 19.6707 88.0011 20.0916 88.1337 20.4695C88.2696 20.8473 88.4734 21.1489 88.7452 21.3743C89.0203 21.5964 89.365 21.7074 89.7793 21.7074ZM98.2869 23.1491C97.5412 23.1491 96.8949 22.9851 96.348 22.657C95.8011 22.3288 95.3769 21.8698 95.0753 21.2798C94.777 20.6899 94.6278 20.0005 94.6278 19.2116C94.6278 18.4228 94.777 17.7318 95.0753 17.1385C95.3769 16.5452 95.8011 16.0845 96.348 15.7564C96.8949 15.4283 97.5412 15.2642 98.2869 15.2642C99.0327 15.2642 99.679 15.4283 100.226 15.7564C100.773 16.0845 101.195 16.5452 101.494 17.1385C101.795 17.7318 101.946 18.4228 101.946 19.2116C101.946 20.0005 101.795 20.6899 101.494 21.2798C101.195 21.8698 100.773 22.3288 100.226 22.657C99.679 22.9851 99.0327 23.1491 98.2869 23.1491ZM98.2969 21.7074C98.7012 21.7074 99.0393 21.5964 99.3111 21.3743C99.5829 21.1489 99.785 20.8473 99.9176 20.4695C100.054 20.0916 100.121 19.6707 100.121 19.2067C100.121 18.7393 100.054 18.3168 99.9176 17.9389C99.785 17.5578 99.5829 17.2545 99.3111 17.0291C99.0393 16.8037 98.7012 16.6911 98.2969 16.6911C97.8826 16.6911 97.5379 16.8037 97.2628 17.0291C96.991 17.2545 96.7872 17.5578 96.6513 17.9389C96.5187 18.3168 96.4524 18.7393 96.4524 19.2067C96.4524 19.6707 96.5187 20.0916 96.6513 20.4695C96.7872 20.8473 96.991 21.1489 97.2628 21.3743C97.5379 21.5964 97.8826 21.7074 98.2969 21.7074ZM105.114 20.6037L105.109 18.4311H105.398L108.142 15.3636H110.245L106.869 19.1222H106.496L105.114 20.6037ZM103.474 23V12.8182H105.273V23H103.474ZM108.266 23L105.78 19.5249L106.993 18.2571L110.419 23H108.266Z" fill="#3F3F46"/>
</svg>
