<svg viewBox="0 0 24 24" xmlns="http://www.w3.org/2000/svg"><path d="M2.74276 22.0683L2.00086 2.30018C1.97636 1.64732 2.47695 1.09402 3.129 1.05327L19.9432 0.00238575C20.6069 -0.0390961 21.1785 0.465319 21.22 1.12903C21.2216 1.15403 21.2224 1.17908 21.2224 1.20414V22.745C21.2224 23.41 20.6833 23.9491 20.0183 23.9491C20.0002 23.9491 19.9822 23.9487 19.9642 23.9479L3.89198 23.226C3.26603 23.1979 2.76625 22.6944 2.74276 22.0683Z" fill="#FF4785"/><path d="M16.1943 2.94372L16.3091 0.181428L18.6182 0L18.7177 2.84866C18.7211 2.9478 18.6436 3.03097 18.5444 3.03444C18.502 3.03592 18.4604 3.02231 18.427 2.99602L17.5366 2.29455L16.4823 3.09429C16.4032 3.15424 16.2906 3.13877 16.2306 3.05974C16.2054 3.02647 16.1925 2.98544 16.1943 2.94372ZM13.2412 9.02673C13.2412 9.4952 16.3967 9.27067 16.8203 8.94161C16.8203 5.75148 15.1085 4.07512 11.974 4.07512C8.83952 4.07512 7.08331 5.77756 7.08331 8.33123C7.08331 12.7789 13.0855 12.864 13.0855 15.29C13.0855 15.9709 12.7521 16.3753 12.0185 16.3753C11.0626 16.3753 10.6846 15.8871 10.7291 14.2272C10.7291 13.8671 7.08331 13.7549 6.97216 14.2272C6.68912 18.2497 9.19521 19.4099 12.0629 19.4099C14.8417 19.4099 17.0203 17.9288 17.0203 15.2474C17.0203 10.4806 10.9292 10.6082 10.9292 8.24611C10.9292 7.28848 11.6406 7.1608 12.0629 7.1608C12.5075 7.1608 13.3078 7.23916 13.2412 9.02673Z" fill="white"/></svg>
